<?xml version="1.0" encoding="utf-8"?>
<!-- Generator: Adobe Illustrator 25.4.1, SVG Export Plug-In . SVG Version: 6.00 Build 0)  -->
<svg version="1.1" id="Isolation_Mode" xmlns="http://www.w3.org/2000/svg" xmlns:xlink="http://www.w3.org/1999/xlink" x="0px"
	 y="0px" viewBox="0 0 28.3 25.1" style="enable-background:new 0 0 28.3 25.1;" xml:space="preserve">
<path d="M13.4,0.1c3.9-0.8,5,4.1,5.1,7.6c0.1,2.9-2.3,6.5-4.1,6.5c-1.1,0-4.2-2.3-4.7-3.1c-1-1.9-0.9-6.8,0.4-8.9
	C10.9,1.2,12.4,0.3,13.4,0.1z M15,2.4c0.3,0,0.5,0,0.6,0.3c-0.6,0.6-0.8,1.5-1.3,2.3c1-0.3,0.9-2.1,2.3-1.6c-0.3-0.9-0.7-1.8-1.7-2
	C14.9,1.7,15.1,1.9,15,2.4z M11.6,3.2c0.8-0.1,0.7-1,1.1-1.6C12,1.8,11.7,2.4,11.6,3.2z M12.7,3.2c0.4-0.1-0.4,0.5,0.1,0.6
	c0.4-0.5,1.2-0.6,1.3-1.4c-0.3,0-0.3-0.2-0.6-0.1C13.3,2.8,13.1,3,12.7,3.2z M14.2,7.9c0.7-1.3,3.4-2.7,2.4-4.2
	C16.2,5.4,14.3,6.4,14.2,7.9z M11.5,7.7c0.9-0.4,1.8-2.2,1.4-2.8C12.3,5.7,11.2,6.5,11.5,7.7z M16,11c0.5,0,0.8-1.5,0.3-1.6
	C16.2,9.9,15.6,10.5,16,11z"/>
<path d="M28.3,19.8c-0.1,0.9-1.1,1.3-0.6,2.4c-0.9-0.3-0.7,1-1.3,1.4c-0.7-0.4-0.7-0.7-1.4-1.1c-1.1,0.4-2.8-0.3-3.7,0.7
	c-1.1-0.5-2.4-0.2-3.4,0.3c-3-1-6.6,0.4-9.2,0.7c-0.9,0.1-1.7-0.1-2.5,0.1c-1.3,0.3-3.1,1-4.8,0.7c0-0.5-0.5-0.6-0.9-0.8
	c0-1.1-0.2-1.6-0.6-2.4c0.6-4.8,4.9-6.3,10.2-6.9c0.8-0.1,1.7,0.2,2.5,0.1c0.4,0,0.8-0.4,1.1-0.4c1.5-0.2,3.7,0.4,5.9,0.6
	c1.5,0.1,3.5-0.3,4.8,0.3C26.5,16.2,27.2,18.6,28.3,19.8z M13.9,15.8c-0.1,2-1.6,2.6-2.3,4c1.5-1.1,2.7-2.7,4-4.1
	C14.9,15.6,14.5,15.5,13.9,15.8z M7.6,23.2c1.5-0.5,1.8-2.1,2.6-3.3c0.6-0.5,1.1-1,1.4-1.8c-0.5-0.2-0.6,0.6-0.8,0.1
	c0.7-0.9,1.6-1.5,2.3-2.4c-2.9,0-5.6,0.5-7.9,1.1c-0.3,1.3-1.2,2-1.8,3c1.5-0.7,2-2.3,3.4-3.1c0.3,0.1,0.4,0.3,0.6,0.6
	c0,1.1-1.5,2.2-1,2.8c1.2-1.5,2.4-2.9,4.1-4c0,0.2,0.3,0.2,0.4,0.3c-0.6,2-2,3.2-3.1,4.7c1.2-0.3,1.9-2.2,3.1-2.8
	C9.9,20,8,21.5,7.6,23.2z M16,17.6c0.6-0.5,1.8-1.2,1.8-1.8c0,0.2-0.7-0.1-0.8-0.1C16.9,16.6,16.2,16.8,16,17.6z M18.8,17.8
	c1-0.3,1.5-1.2,2.1-1.8C19.5,15.7,19.3,16.8,18.8,17.8z M21.9,16.2c0.2,1-0.7,1.9-1.1,2.8c1.2-0.7,1.9-1.8,2.8-2.7
	C23.1,16.1,22.6,16.1,21.9,16.2z M17.4,17.2c-0.2,0-0.3-0.2-0.6-0.1c0.2,0.8-0.8,0.8-0.4,1.3c-0.4,0.3-0.8,0.4-1.1,0.7
	c0,1.1-1.6,1.8-1.7,3.3c0.5,0.1,0.8-0.3,1,0c1.1-2.1,3-3.5,3.8-5.9C17.7,16.1,17.5,16.9,17.4,17.2z M19.8,22c2.5-0.4,2.7-3.7,3.8-5
	c-0.1,0-0.2,0-0.3,0C22.5,18.9,20.1,20.1,19.8,22z M11.5,20.9c-0.3,0.4-0.9,1.4-0.7,1.8c0-0.3,0.5-0.1,0.7-0.1
	c1.1-1.8,2.3-3.3,3.4-5.1c0-0.2,0-0.3-0.3-0.3C13.6,18.4,12.3,19.6,11.5,20.9z M23.2,19.3c0.1,0,0.2,0.1,0.1,0.3
	c0.7-0.7,1.9-0.9,2-2.3c-0.2-0.1-0.4-0.2-0.7-0.1C24.3,18.1,24,19,23.2,19.3z M16.6,22.2c2.8-0.1,2.6-3.1,4-4.7
	c-0.2,0-0.3-0.1-0.4-0.1C19.1,19.1,17.3,20.1,16.6,22.2z M1.4,21.6c0.7-1.3,1.6-2.5,2.3-3.8C2.3,18.4,1,19.8,1.4,21.6z M2,23.7
	c1.7-0.9,2.6-3.5,3.4-4.8C4,20.3,3,22,2,23.7z M25.1,20.9c0.5-0.3,0.8-0.1,0.8,0.4c0.9-0.2,0.9-1.2,0.6-2
	C25.6,19.4,25.5,20.3,25.1,20.9z M23.2,21.6c0.2-0.8,1.7-1.5,1.1-2.1C24.1,20.2,22.9,20.8,23.2,21.6z M4.4,23.6
	c2-0.1,2.4-2.4,2.8-3.5C6.2,21.2,4.9,22,4.4,23.6z"/>
</svg>
